<?xml version="1.0" encoding="UTF-8"?>
<svg id="Layer_2" data-name="Layer 2" xmlns="http://www.w3.org/2000/svg" viewBox="0 0 163.96 174.08">
  <defs>
    <style>
      .cls-1 {
        fill: #f7f7f7;
        fill-rule: evenodd;
      }

      .cls-2 {
        opacity: .81;
      }

      .cls-3 {
        opacity: .3;
      }
    </style>
  </defs>
  <g id="Layer_1-2" data-name="Layer 1">
    <g class="cls-3">
      <g>
        <g class="cls-2">
          <path class="cls-1" d="M128.65,154.4c.67-.75,1.28-1.61,1.27-3.11,2.39,2.93,1.51,6.31,1.45,9.51l-.24,3.79-1-3.35c-1,.84-2.36,1.58-2.87,1.08l-.75-.73c-.15-.15-.44.71-.59,1l-2.42-3.3-.63,1.14c-.13.23-.7.02-1.19.06,2.5,5.08,3.36,6.41.82,9.91l-.28-1.16c-.49.55-.68.86-.9,1.37l-.93.39-.32-1-1.34,1.18-.36-.43s-.02-.04-.19.04l-.49.24.49-1.68-1.23,1.46-.86-.47-.28.78c-1.29-.59-.13-1.09.34-1.5l-.16-3.26c0-.45.4-1.5.05-2.03-.74-1.19-2.79.37-3.15.19l-1.29-.67c-.54.41-1.22.72-1.77.74-.82.04-1.32-.67-2.2-1.48-.25.28-.63,1.27-.76,1.8l-.3-.39c-.09-.12-.53-.48-.56-.34-.05.28-.11.79-.03,1.03l.33.87c.07.17-.54.22-.68.09l-.82-.8c-.2-.21-.6.38-.71.73-.64,2.56-1.22-.97.13,4.62.97.02,1.62.1,2.4-.14l1.36.68-.26-1.73.79,1.57c.09.08.38.3.47.36.12.09.47-.04.94-.13l-.1,1.33c-.73.17-1.8.25-2.34.18l-1.2,1.21c-.91.08-2.72.11-3.44-.36l-1.81-4.41c-.23-.67-1.75-1.58-2.54-2.01l.54,2.55c-3.81-.48-.77-3.88-3.74-5.55l-1.62-3.11-.8,1.39c-2.1-2.21-3.67-4.51-5.33-7.2-.54-.87-1.35-1.4-2.23-1.42l-5.51-8.15-3.65-7.41c-.28-.59-1.13-1.44-1.6-2.08,1.72-.41,3.5-.53,5.14-1.1,8.66-3.05,9.62-14.65,7.37-22.17-.26-.88-.48-1.51.31-2.3,2.22-2.23,5.45-2.76,8.54-2.21.16,3.85,1.27,7.29,3.9,10.03,3.59,3.76,8.84,5.3,13.66,3.16,7.69-3.41,9.98-11.39,7.7-18.69-.3-.95-1.48-2.09-1.24-3.22.13-.63,1.75-1.1,2.39-1.04l18.59,1.67c.24,1.94.55,3.34,1.14,4.7l.31-1.27c.03-.13.07-.15.16-.02l.42.57.2-2.38,1.16,3.06c-.03.79.14.25.37-.7,2.68,3.87-1.19,3.78.09,8.18.35-.95.5-1.74.82-3.19l1.17,2.78,1.74-8.1c2.77-1.96,6.36-5.35,9.74-4.34,2.29.68,3.91,3.19,4.66,5.4,2.75,8.16-.1,14.4-4.88,21.04-1.03,2.84-3.24,6.01-5.48,5.83-2.05-.16-4.81-5.19-4.81-5.19l-1.22-11.17-.85,1.04c-.16.19-4.14-2.42-2.73-3.43l1.55-1.11-2.07-.55-.32,3.98-.31,3.91-.86,4.24-.55-.57c-.15-.15-.74-.08-.57,0,1.21,5.41-.17,2.25-1.12,7.88l-.41,2.45-.97-1.21.24,2.33-2.23-2.36-.05,3.73c.12.03-.39-.09-.58-.13-.18-.04.32-.82.22-.97-.26-.39-.86-.96-1.45-1.48-.9,2.13,1.34,3.82,1.08,3.82-.14,0-.5.25-.58.13l-.41-.59c-.22-.32-.56-.78-.76-.67s-.65.41-.58.63l.36,1.13c.03.09-.18.12-.27.07l-1.02-.62.37,4.2c.27.09-.77-.27-1.14-.39-.62-.21.46-.69-.27-2.12s.24,3.45-1.36,4.48l-.46,4.04-1.36,1.18-.11,4.51c0,.24-.22,1.05-.42.98l-1.23-.46.19,1.33c.04.31.56.43.97.66l2.14,1.65.11-2.9ZM152.9,114.35c-.53-.64-.76-.79-.7-.98.5-1.63-.3-1.73.18-2.16l.97-.87,1.58-3.41c.24-.52,1.35-1.24,1.86-1.12.44.1,1.03.69,1.49,1.12l.84.81c.19.18.7-1.19,1.6-2.56.58-.89-.78-2.76-1.72-3.12-1.14-.45-3.3-.25-3.62.77.6,1.28-.07,3.04-1.24,3.44-.31-.19-.91-.73-1.04-.51-.9,1.55-2.16,7.15-2.18,8.98-.02,1.71.22,3.52-.15,5.11-.1.44.59,1.72.98,1.55l1.6-.73c.83-.38,1.56-.49,1.57-1.28,0-.67-.6-1.11-1.06-1.75-.49-.67-.42-2.65-.95-3.28ZM161.56,116.77c.9-2.62.79-5,.37-7.13l-1.54,2.75c-.73,1.31-.36,3.87,1.17,4.39ZM104.4,132.82c-2.77-1.32-7.86-1.52-8.16,1.98l8.16-1.98ZM93.45,136.8l-3.38-1.38c.12.92.42,1.78.94,1.88.73.14,1.66-.05,2.44-.5ZM102.15,141.42c2.15,2.13,4.52,1.07,6.48.19.31.24,4.53.14,4.84.1l3.87-.48-1.49-1.1c3.75,1.04,4.14-1.67,7.19,2.48l.42-1.48.41,1.69c1.1-2.07.23-4.96-1.63-6.4-.5-.39-1.93-.7-2.51-.57l-3.51.78.2,1.66-1.83-1.33c-.61-.44-2.43-.15-3.18-.33-.85-.2-1.44-.27-2.15-.21l-.93-.35c-.19-.07-.59.29-.53.49l.27.98c-.42-.57-1.76-1.28-2.76-1.44-.66-.1-1.49.54-2.02,1.1l-.67-.96c.4.58-2.19.21-2.39.63l-.58,1.19c-.16.33-1.43.65-1.29,1l.6,1.56c.56,1.45,1.32,3.07,3.02,3.12l-.51-1.46c-.07-.2.05-.26.68-.88ZM114.67,144.33c-7.71,1.66-10.55,3.64-17.57,5.63l-5.86,1.66c-.42-1.04-.4-1.31.31-.95l4.18-4.89,1.45-1.41c.07.2.3,1.1.48.98l.62-.41c1.28-.84,1.03-2.88.2-4.13l-.69-1.05c-.14-.22-.94.15-1.15-.02l-1.22-.94c-.68-.52-1.49.78-3.39,2.62-1,.97-1.76,2.83-2.68,4.16-.81,1.19-1.82,1.98-1.89,3.75s.07,3.33,1.33,4.56l1.91,1.9.56-3.55c1.83-.29,3.3-.88,5.19-1.43l5.43-1.59c2.29-.67,4.34-1.99,6.63-2.6s4.42-1.01,6.14-2.29Z"/>
          <path class="cls-1" d="M123.21,97.12c-1.95-.26-3.87.17-5.62.57l-3.17-1.81c2.28.1,5.27.39,7.73.76.34.05,1.04-.76.99-1.09-.3-1.82-6.12-3.3-7.98-3.19-3.89.23-7.44,1.55-11.19,2.62-6.52,1.86-3.73,4.62-5.86,7.41-1.1,1.44-1.72,3.16-2.17,4.95-3.41-.5-8.67.43-10.45,4.4l-2.77-1.43.6-1.15c-.38-1.29-1.86-2.64-3.41-2.61-3.96.08-7.11,2.04-9.38,5.26l-1.3-8.37c-1.72-11.04,3.63-24.25,12.73-30.99l2.78-1.09c.29-.11.85-.35.83-.54l-.08-.86c.47.24,1.21.22,1.66-.42.27-.38.06-.82-.31-1.56l2.92.63c1.5-.77,2.58-1.25,3.98-1.79.01-.1-.15-.8.02-.76l1.41.29c.06,0,.07-.51-.07-.64l-.9-.83c2.8.21,5.66.16,7.75-1.29-.25-.72.82-.39,1.28-.36l.08-.91c.02-.24.8-.36,1.05-.38l3.49-.28c4.25-.34,16.65,1.17,19.29,5.57l.43-2.46c1.81.83,2.86,2.08,3.74,3.76,1.97,3.79.82,4.78,2.55,5.16l1.95,2.93v-2.98s2.03,2.27,2.03,2.27l.63-.52,1.65,1.86c.79.19,1.36.44,2.03.9l.94-.45c.28-.14.75.42,1.17.86l.83-.42c.53.64,1.68,2.61,1.35,3.52l-.83,2.23-1.99-4.5-.54,2.75-2.57-3.37c-.21.38-.83,1.36-1.05,1.11l-1.28-1.39.23,1.68-3.44-2.62c-.24.68,1.7,3.79,1.4,3.97l-.51.32,1.79,4.15c-.74.33-.88.46-1.07.29l-1.45-1.32c1.39,6.21,5.12,6.65,6.16,14.56l-18.08-2.41Z"/>
          <path class="cls-1" d="M117.52,106.32c.4-.32.46-1.69.53-2.29.72.03,2.76.76,2.96,1.6,2.2,9.16-5.89,16.23-11.31,16.43-6.56.25-11.8-4.72-12.89-11.01-.54-3.11-.22-7.34,2.66-9.12,1.87-1.15,10.32-4.91,12.58-5.2,4.49-.57,8,3.2,8.35,7.22-7.79-2.64-10.37-.37-14.77,5.45-.82.08-.47.23.33.47,1.5-2.08,3.26-4.24,5.43-5.37.27,1.55.39,3.13,1.94,3.27,1.08.09,3.32-.77,4.19-1.45Z"/>
          <path class="cls-1" d="M75.48,135.29l-1.22-9.11-3.21-9.18c.79-2.83,4.03-5.46,6.81-6.27,2.48-.72,4.9-.17,6.8,1.29,4.11,3.16,3.33,11.6,1.32,16.24-1.8,4.17-5.65,7.11-10.5,7.02ZM83.37,114.97c-2.94-.46-5.99.66-7.91,2.9,2.74-1.51,5.07-2.65,7.91-2.9ZM81.13,121.24c1.1-.38,2.61-1.27,3.29-1.78l.7-2.18c-2.88-1.55-7.5-.65-9.18,2.85-.51,1.06-.76,2.35-1.06,3.69,1.57-1.07,1.09-4.19,3.88-5.56-.01,1.34.58,3.61,2.37,2.99Z"/>
          <path class="cls-1" d="M148.75,100.5c-2.82-.3-.99-.92-3.52-2.6l-.17,1.73s-.55.1-.73.14c-.24.05-.08-.59-.04-.95l-.1-.41c-.03-.13-.16-.77-.2-.64l-.24.86-.27.98c-.07.25-.63.02-1.04-.13l-.97-4.02,1.26.94,2.56-1.53c-.09-1.59.04-2.51,1.11-3.46l-.96-2.8c1.72-.68,3.95.69,5.13,1.7.39.33,1.7.75,1.91,1.31l1.87,4.87-2.66-.54c.31,2.08.38,3.4.15,4.74-1.21-1.01-1.91-1.38-3.47-2.21l.39,2.03Z"/>
        </g>
        <g class="cls-2">
          <g>
            <g>
              <path class="cls-1" d="M28.32,44.88c0-1.69-1.27-3.11-2.95-3.3-.16-.02-.29-.04-.38-.05-6.69-1.25-10.57-6.95-10.7-13.81-.14-7.24,4.44-13.08,11.25-14.17,1.61-.26,2.79-1.64,2.79-3.27V.03c-3.83-.05-7.67.6-11.41,1.98C6.07,5.98.14,15.98,0,27.3c-.17,13.93,8.91,25.5,23.07,27.45,1.64.22,3.43.33,5.25.31v-10.18Z"/>
              <path class="cls-1" d="M83.78,16.36c-2.41-6.51-7.36-11.28-13.78-14.02-2.89-.97-6.13-2.24-9.33-2.25l-25.03-.1v10.23c0,1.64,1.19,3.05,2.81,3.32h0c7.04,1.2,11.31,7.35,11.06,14.57-.24,7.04-4.5,12.35-11.08,13.44-1.6.26-2.79,1.64-2.79,3.27v10.27s25.94-.08,25.94-.08c2.91,0,5.79-1.46,8.56-2.17,14.27-6.17,18.84-22.47,13.65-36.47Z"/>
              <path class="cls-1" d="M28.2,20.32v-1.85h-6.98v1.49c0,1.43,1.16,2.58,2.58,2.58h0c.61,0,1.11.5,1.11,1.11v14.21h4.84v-14.77c-.93-.58-1.55-1.61-1.55-2.78Z"/>
              <path class="cls-1" d="M42.97,28.53c-.47-.85-1.09-1.5-1.87-1.96h-.02c-.91-.54-1.1-1.76-.41-2.54l2.07-2.32c.32-.36.49-.82.49-1.29h0c0-1.07-.87-1.94-1.94-1.94h-10.83v1.85c0,1.23,1,2.23,2.23,2.23h1.39c1.92,0,.75,2.15-.49,3.68-.11.13-.17.3-.17.47v1.37c0,.49.43.87.92.82h.01c.4-.05.77-.07,1.12-.07.71,0,1.32.11,1.82.31.5.21.88.51,1.15.89.26.38.4.85.4,1.4s-.13,1.02-.38,1.41c-.26.39-.62.69-1.08.9-.55.25-1.19.35-1.92.31-.61-.04-1.2-.2-1.76-.46h0c-.36-.17-.83-.04-1.29.21-1.08.57-1.43,1.96-.78,3h0c.29.46.75.8,1.28.93.83.21,2.1.49,2.95.49,1.57,0,2.94-.28,4.12-.83,1.18-.56,2.09-1.34,2.74-2.34.65-1,.97-2.16.97-3.47,0-1.17-.23-2.17-.7-3.02Z"/>
            </g>
            <polygon class="cls-1" points="55.63 70.69 35.64 50.7 55.63 50.7 55.63 70.69"/>
          </g>
        </g>
      </g>
    </g>
  </g>
</svg>