<?xml version="1.0" encoding="UTF-8"?>
<svg id="Layer_2" data-name="Layer 2" xmlns="http://www.w3.org/2000/svg" viewBox="0 0 264.04 98.43">
  <defs>
    <style>
      .cls-1 {
        fill: #393839;
        fill-rule: evenodd;
      }

      .cls-2 {
        opacity: .81;
      }
    </style>
  </defs>
  <g id="Layer_1-2" data-name="Layer 1">
    <g class="cls-2">
      <g>
        <path class="cls-1" d="M24.71,95.85l47.02.03,17.68-.09c3.91-.02,7.07-3.19,7.06-7.1l-.02-79c0-4.36-3.91-7.8-8.2-7.01-.81.15-1.5.42-1.99.86-4.51,4.03-8.02,7.96-12.01,12.17l-16.14,17.01c-.28.29-.55.58-.82.86-4.66,4.93-12.49,4.99-17.23.14l-7.2-7.35L16.08,8.93c-4.34-4.51-3.08-6.03-8.83-6.18C3.27,2.65,0,5.87,0,9.85l.04,78.88c0,3.92,3.17,7.09,7.09,7.1l17.58.02Z"/>
        <path class="cls-1" d="M161.23,80.19c0-3.02-2.27-5.56-5.27-5.9-.28-.03-.52-.06-.68-.09-11.95-2.23-18.89-12.43-19.12-24.67-.25-12.94,7.93-23.37,20.1-25.32,2.87-.46,4.98-2.93,4.98-5.84V.05c-6.85-.09-13.7,1.08-20.38,3.53-19.37,7.11-29.97,24.98-30.22,45.2-.31,24.9,15.92,45.57,41.22,49.04,2.93.4,6.13.59,9.38.56v-18.19Z"/>
        <path class="cls-1" d="M260.34,29.24c-4.31-11.64-13.15-20.15-24.63-25.04-5.16-1.73-10.95-3.99-16.68-4.02l-44.72-.18v18.28c0,2.94,2.12,5.44,5.02,5.93h0c12.57,2.15,20.21,13.13,19.76,26.03-.44,12.58-8.04,22.07-19.8,24.01-2.87.47-4.98,2.93-4.98,5.84v18.35s46.34-.15,46.34-.15c5.2-.02,10.34-2.61,15.3-3.87,25.49-11.02,33.66-40.16,24.39-65.17Z"/>
        <path class="cls-1" d="M161.01,36.31v-3.3h-12.48v2.67c0,2.55,2.07,4.61,4.61,4.61h0c1.1,0,1.98.89,1.98,1.99v25.39h8.65v-26.39c-1.66-1.03-2.77-2.87-2.77-4.97Z"/>
        <path class="cls-1" d="M187.4,50.97c-.83-1.52-1.95-2.68-3.35-3.5l-.03-.02c-1.62-.94-1.97-3.12-.73-4.52l3.7-4.15c.57-.64.88-1.46.88-2.31h0c0-1.92-1.55-3.47-3.47-3.47h-19.36v3.3c0,2.2,1.78,3.98,3.98,3.98h2.48c3.43,0,1.33,3.84-.88,6.58-.19.24-.3.53-.3.84v2.44c0,.88.77,1.56,1.64,1.46h.02c.72-.08,1.38-.12,2-.12,1.27,0,2.35.19,3.25.56.9.38,1.58.9,2.05,1.59.47.68.71,1.52.71,2.49s-.23,1.82-.68,2.52c-.46.7-1.1,1.24-1.93,1.61-.98.44-2.12.62-3.43.55-1.09-.06-2.15-.36-3.14-.82h0c-.64-.3-1.48-.06-2.31.38-1.93,1.02-2.55,3.5-1.39,5.35h0c.52.83,1.34,1.43,2.29,1.67,1.48.37,3.75.87,5.28.87,2.8,0,5.26-.5,7.36-1.49,2.1-.99,3.73-2.39,4.89-4.18,1.16-1.79,1.74-3.86,1.74-6.21,0-2.09-.42-3.89-1.25-5.4Z"/>
      </g>
    </g>
  </g>
</svg>